<svg width="107" height="95" viewBox="0 0 107 95" fill="none" xmlns="http://www.w3.org/2000/svg">
<mask id="mask0_24_102" style="mask-type:alpha" maskUnits="userSpaceOnUse" x="0" y="0" width="107" height="95">
<circle cx="4.18145" cy="4.07531" r="3.82073" fill="#216869"/>
<circle cx="4.18145" cy="18.6305" r="3.82073" fill="#216869"/>
<circle cx="4.18145" cy="32.8218" r="3.82073" fill="#216869"/>
<circle cx="4.18145" cy="47.3769" r="3.82073" fill="#216869"/>
<circle cx="18.3727" cy="4.07531" r="3.82073" fill="#216869"/>
<circle cx="18.3727" cy="18.6305" r="3.82073" fill="#216869"/>
<circle cx="18.3727" cy="32.8218" r="3.82073" fill="#216869"/>
<circle cx="18.3727" cy="47.3769" r="3.82073" fill="#216869"/>
<circle cx="32.564" cy="4.07531" r="3.82073" fill="#216869"/>
<circle cx="32.564" cy="18.6305" r="3.82073" fill="#216869"/>
<circle cx="32.564" cy="32.8218" r="3.82073" fill="#216869"/>
<circle cx="4.18145" cy="61.5682" r="3.82073" fill="#216869"/>
<circle cx="4.18145" cy="76.1234" r="3.82073" fill="#216869"/>
<circle cx="4.18145" cy="90.3147" r="3.82073" fill="#216869"/>
<circle cx="18.3727" cy="61.5682" r="3.82073" fill="#216869"/>
<circle cx="18.3727" cy="76.1234" r="3.82073" fill="#216869"/>
<circle cx="18.3727" cy="90.3147" r="3.82073" fill="#216869"/>
<circle cx="32.564" cy="61.5682" r="3.82073" fill="#216869"/>
<circle cx="32.564" cy="76.1234" r="3.82073" fill="#216869"/>
<circle cx="32.564" cy="90.3147" r="3.82073" fill="#216869"/>
<circle cx="46.7554" cy="61.5682" r="3.82073" fill="#216869"/>
<circle cx="46.7554" cy="76.1234" r="3.82073" fill="#216869"/>
<circle cx="46.7554" cy="90.3147" r="3.82073" fill="#216869"/>
<circle cx="60.9466" cy="61.5682" r="3.82073" fill="#216869"/>
<circle cx="60.9466" cy="76.1234" r="3.82073" fill="#216869"/>
<circle cx="60.9466" cy="90.3147" r="3.82073" fill="#216869"/>
<circle cx="75.138" cy="61.5682" r="3.82073" fill="#216869"/>
<circle cx="75.138" cy="76.1234" r="3.82073" fill="#216869"/>
<circle cx="75.138" cy="90.3147" r="3.82073" fill="#216869"/>
<circle cx="60.9466" cy="18.6305" r="3.82073" fill="#216869"/>
<circle cx="60.9466" cy="33.1857" r="3.82073" fill="#216869"/>
<circle cx="60.9466" cy="47.3769" r="3.82073" fill="#216869"/>
<circle cx="75.138" cy="18.6305" r="3.82073" fill="#216869"/>
<circle cx="75.138" cy="33.1857" r="3.82073" fill="#216869"/>
<circle cx="75.138" cy="47.3769" r="3.82073" fill="#216869"/>
<circle cx="75.138" cy="4.07531" r="3.82073" fill="#216869"/>
<circle cx="89.0818" cy="61.3137" r="3.82073" fill="#216869"/>
<circle cx="89.0818" cy="75.8688" r="3.82073" fill="#216869"/>
<circle cx="89.0818" cy="90.0601" r="3.82073" fill="#216869"/>
<circle cx="89.0818" cy="18.3759" r="3.82073" fill="#216869"/>
<circle cx="89.0818" cy="32.9311" r="3.82073" fill="#216869"/>
<circle cx="89.0818" cy="47.1224" r="3.82073" fill="#216869"/>
<circle cx="89.0818" cy="3.82073" r="3.82073" fill="#216869"/>
<circle cx="102.814" cy="61.3137" r="3.82073" fill="#216869"/>
<circle cx="102.814" cy="75.8688" r="3.82073" fill="#216869"/>
<circle cx="102.814" cy="90.0601" r="3.82073" fill="#216869"/>
<circle cx="102.814" cy="18.3759" r="3.82073" fill="#216869"/>
<circle cx="102.814" cy="32.9311" r="3.82073" fill="#216869"/>
<circle cx="102.814" cy="47.1224" r="3.82073" fill="#216869"/>
<circle cx="102.814" cy="3.82073" r="3.82073" fill="#216869"/>
<circle cx="60.9466" cy="4.4392" r="3.82073" fill="#216869"/>
<circle cx="32.564" cy="47.3769" r="3.82073" fill="#216869"/>
<circle cx="46.7554" cy="4.07531" r="3.82073" fill="#216869"/>
<circle cx="46.7554" cy="18.6305" r="3.82073" fill="#216869"/>
<circle cx="46.7554" cy="32.8218" r="3.82073" fill="#216869"/>
<circle cx="46.7554" cy="47.3769" r="3.82073" fill="#216869"/>
</mask>
<g mask="url(#mask0_24_102)">
<path d="M0 0H106.115V98H0V0Z" fill="url(#paint0_linear_24_102)"/>
</g>
<defs>
<linearGradient id="paint0_linear_24_102" x1="-1.38358e-06" y1="49" x2="106.115" y2="49" gradientUnits="userSpaceOnUse">
<stop stop-color="white"/>
<stop offset="1" stop-color="white" stop-opacity="0"/>
</linearGradient>
</defs>
</svg>
